<svg xmlns="http://www.w3.org/2000/svg" width="34" height="34" viewBox="0 0 34 34"><path d="M30,35H4a4,4,0,0,1-4-4V5A4,4,0,0,1,4,1H30a4.005,4.005,0,0,1,4,4V31A4.005,4.005,0,0,1,30,35ZM10.9,8.67V27H17.71a6.458,6.458,0,0,0,4.406-1.352,4.586,4.586,0,0,0,1.521-3.588,4.43,4.43,0,0,0-1.053-2.938,4.814,4.814,0,0,0-2.742-1.612,4.329,4.329,0,0,0,2.431-1.4,4.223,4.223,0,0,0,.949-2.86,4.2,4.2,0,0,0-1.43-3.354A6.311,6.311,0,0,0,17.606,8.67Zm6.37,16.354h-4V18.472h3.952a4.481,4.481,0,0,1,2.925.871,2.963,2.963,0,0,1,1.053,2.4,2.987,2.987,0,0,1-1.027,2.418A4.417,4.417,0,0,1,17.268,25.024Zm-.052-8.32H13.264V10.62h3.848a4.119,4.119,0,0,1,2.782.806,2.81,2.81,0,0,1,.911,2.209,2.855,2.855,0,0,1-.923,2.262A3.952,3.952,0,0,1,17.216,16.7Z" transform="translate(0 -1)" fill="#7952b3"/></svg>